<svg width="120.000000" height="120.000000" viewBox="0 0 120 120" fill="none" xmlns="http://www.w3.org/2000/svg" xmlns:xlink="http://www.w3.org/1999/xlink">
	<desc>
			Created with Pixso.
	</desc>
	<defs>
		<clipPath id="clip140_4">
			<rect id="wrench-alt" width="120.000000" height="120.000000" fill="white" fill-opacity="0"/>
		</clipPath>
	</defs>
	<g clip-path="url(#clip140_4)">
		<path id="path" d="M13.69 105.08C16.56 108.26 20.9 110.08 25.18 110.19C29.26 110.19 33.22 108.55 36.11 105.67L61.12 80.73C62.18 79.67 63.76 79.29 65.34 79.72C70.84 81.22 76.53 81.37 82.23 80.15C96.1 77.2 107.11 65.83 109.62 51.86C110.37 47.66 110.38 43.44 109.65 39.32C109.1 36.24 106.88 33.73 103.85 32.78C100.76 31.81 97.44 32.62 95.19 34.87L84.39 45.52C82.99 46.91 81.05 47.64 79.07 47.56C77.06 47.46 75.25 46.54 73.96 44.96C71.71 42.23 72.13 37.92 74.89 35.17L84.29 25.92C87.13 23.09 88.19 19.41 87.14 16.07C86.22 13.15 83.84 11.08 80.78 10.54C76.65 9.8 72.43 9.82 68.22 10.57C54.21 13.07 42.82 24.04 39.86 37.88C38.64 43.56 38.78 49.23 40.28 54.73C40.71 56.31 40.33 57.88 39.27 58.94L14.71 83.43C8.85 89.28 8.38 99.2 13.69 105.08ZM69.69 18.78C71.5 18.46 73.31 18.32 75.07 18.32C76.47 18.32 77.85 18.4 79.17 18.57C79.2 18.68 79.15 19.24 78.4 19.99L68.99 29.25C63.21 35.01 62.55 44.24 67.48 50.24C70.24 53.62 74.32 55.68 78.65 55.89C82.99 56.18 87.24 54.48 90.29 51.43L101.4 40.78C101.96 43.93 101.96 47.16 101.38 50.39C99.46 61.06 91.07 69.74 80.49 71.99C76.1 72.92 71.74 72.81 67.54 71.67C63.09 70.46 58.36 71.68 55.2 74.83L30.2 99.77C28.81 101.16 26.93 101.92 25 101.84C23.04 101.79 21.24 100.95 19.92 99.49C17.57 96.89 17.91 92.05 20.63 89.33L45.19 64.84C48.36 61.68 49.57 56.97 48.36 52.53C47.21 48.33 47.1 43.98 48.04 39.62C50.3 29.07 59 20.69 69.69 18.78Z" fill="#FFFFFF" fill-opacity="1.000000" fill-rule="evenodd"/>
		<ellipse id="Oval 4" cx="26.415527" cy="93.335251" rx="4.166660" ry="4.166670" fill="#FFFFFF" fill-opacity="1.000000"/>
	</g>
</svg>
