<svg width="24.000000" height="24.000000" viewBox="0 0 24 24" fill="none" xmlns="http://www.w3.org/2000/svg" xmlns:xlink="http://www.w3.org/1999/xlink">
	<desc>
			Created with Pixso.
	</desc>
	<defs/>
	<path id="Union" d="M3 11.9C3 6.98 7.02 3 12 3C16.97 3 21 6.98 21 11.9C21 16.82 16.97 20.81 12 20.81C11.53 20.81 11.06 20.77 10.61 20.7L4.3 21.7L5.65 18.22C4.01 16.6 3 14.37 3 11.9ZM12 4.54C10.97 4.54 10.02 4.72 9.14 5.08C8.26 5.44 7.46 5.98 6.73 6.7C6.01 7.41 5.46 8.21 5.1 9.07C4.74 9.94 4.56 10.88 4.56 11.9C4.56 12.92 4.74 13.87 5.1 14.74C5.47 15.61 6.02 16.4 6.75 17.12L7.47 17.83L6.72 19.75L10.61 19.14L10.85 19.18C11.19 19.22 11.65 19.26 12 19.26C13.02 19.26 13.97 19.08 14.85 18.72C15.73 18.37 16.53 17.83 17.26 17.11C17.98 16.39 18.53 15.6 18.89 14.73C19.24 13.87 19.43 12.9 19.43 11.9C19.43 10.9 19.26 9.98 18.91 9.12C18.55 8.25 17.98 7.41 17.26 6.7C16.53 5.98 15.73 5.44 14.85 5.08C13.97 4.72 13.02 4.54 12 4.54ZM6.95 10.12C6.95 9.65 7.32 9.29 7.8 9.29L16.2 9.29C16.67 9.29 17.04 9.65 17.04 10.12C17.04 10.59 16.67 10.95 16.2 10.95L7.8 10.95C7.32 10.95 6.95 10.59 6.95 10.12ZM12.6 12.85L7.8 12.85C7.32 12.85 6.95 13.22 6.95 13.68C6.95 14.15 7.32 14.51 7.8 14.51L12.6 14.51C13.07 14.51 13.43 14.15 13.43 13.68C13.43 13.22 13.07 12.85 12.6 12.85Z" fill="#000000" fill-opacity="1.000000" fill-rule="evenodd"/>
</svg>
