<svg width="26" height="26" viewBox="0 0 26 26" fill="none" xmlns="http://www.w3.org/2000/svg">
<path d="M26 13C26 20.1797 20.1797 26 13 26C5.8203 26 0 20.1797 0 13C0 5.8203 5.8203 0 13 0C20.1797 0 26 5.8203 26 13ZM3.62787 13C3.62787 18.1761 7.82392 22.3721 13 22.3721C18.1761 22.3721 22.3721 18.1761 22.3721 13C22.3721 7.82392 18.1761 3.62787 13 3.62787C7.82392 3.62787 3.62787 7.82392 3.62787 13Z" fill="#595959"/>
<path d="M17.2807 9.29279C17.0932 9.10532 16.8389 9 16.5737 9C16.3085 9 16.0542 9.10532 15.8667 9.29279L13.2807 11.8788L10.6947 9.29279C10.5061 9.11063 10.2535 9.00983 9.99131 9.01211C9.72911 9.01439 9.4783 9.11956 9.29289 9.30497C9.10748 9.49038 9.00232 9.74119 9.00004 10.0034C8.99776 10.2656 9.09855 10.5182 9.28071 10.7068L11.8667 13.2928L9.28071 15.8788C9.09855 16.0674 8.99776 16.32 9.00004 16.5822C9.00232 16.8444 9.10748 17.0952 9.29289 17.2806C9.4783 17.466 9.72911 17.5712 9.99131 17.5735C10.2535 17.5757 10.5061 17.4749 10.6947 17.2928L13.2807 14.7068L15.8667 17.2928C16.0553 17.4749 16.3079 17.5757 16.5701 17.5735C16.8323 17.5712 17.0831 17.466 17.2685 17.2806C17.4539 17.0952 17.5591 16.8444 17.5614 16.5822C17.5637 16.32 17.4629 16.0674 17.2807 15.8788L14.6947 13.2928L17.2807 10.7068C17.4682 10.5193 17.5735 10.265 17.5735 9.99979C17.5735 9.73462 17.4682 9.48031 17.2807 9.29279Z" fill="#595959" stroke="#595959"/>
</svg>
