<svg width="24.000000" height="25.000000" viewBox="0 0 24 25" fill="none" xmlns="http://www.w3.org/2000/svg" xmlns:xlink="http://www.w3.org/1999/xlink">
	<desc>
			Created with Pixso.
	</desc>
	<defs/>
	<circle id="Oval 5" cx="12.000000" cy="13.000000" r="12.000000" fill="#FF525C" fill-opacity="1.000000"/>
	<path id="!" d="M10.27 5.54L10.67 15.09L12.68 15.09L13.08 5.54L10.27 5.54ZM10.86 20Q11.21 20.2 11.68 20.2Q12.13 20.2 12.47 20.01Q12.68 19.89 12.85 19.72Q13.05 19.51 13.16 19.27Q13.32 18.94 13.32 18.54Q13.32 18.13 13.16 17.8Q13.05 17.56 12.85 17.36Q12.68 17.17 12.46 17.06Q12.12 16.87 11.68 16.87Q11.22 16.87 10.87 17.07Q10.66 17.18 10.49 17.36Q10.31 17.55 10.2 17.78Q10.04 18.12 10.04 18.54Q10.04 18.94 10.19 19.28Q10.3 19.52 10.49 19.72Q10.66 19.89 10.86 20Z" fill="#FFFFFF" fill-opacity="1.000000" fill-rule="evenodd"/>
</svg>
