<svg width="120" height="120" viewBox="0 0 120 120" fill="none" xmlns="http://www.w3.org/2000/svg">
<rect width="120" height="120" rx="60" fill="white"/>
<circle cx="58.3571" cy="54.2032" r="27.4985" fill="#A269FF" fill-opacity="0.22"/>
<circle cx="58.4678" cy="54.2353" r="19.0303" fill="white" stroke="#A269FF" stroke-width="6"/>
<rect x="51.0242" y="87.2013" width="5.4997" height="12.8326" rx="2.74985" fill="#3D0697"/>
<path d="M34.5322 30.3784C33.3719 29.218 31.4802 29.2107 30.4176 30.4612C27.5452 33.8414 25.3046 37.7213 23.8126 41.916C21.9879 47.0457 21.3287 52.5174 21.8827 57.9337C22.4366 63.35 24.1899 68.575 27.0152 73.2291C29.8405 77.8833 33.6668 81.8498 38.2164 84.8406C42.7659 87.8314 47.9245 89.7715 53.3174 90.5198C58.7102 91.2682 64.2021 90.8061 69.3941 89.1671C74.5862 87.5282 79.348 84.7535 83.3338 81.0445C86.5931 78.0116 89.2667 74.4162 91.2309 70.4391C91.9576 68.9678 91.2008 67.234 89.6755 66.6289C88.1502 66.0237 86.4358 66.778 85.6862 68.2377C84.0624 71.3995 81.8987 74.2626 79.2856 76.6941C75.9458 79.8019 71.9558 82.1269 67.6053 83.5003C63.2548 84.8736 58.653 85.2608 54.1342 84.6337C49.6154 84.0066 45.2929 82.381 41.4807 79.875C37.6686 77.3689 34.4624 74.0453 32.095 70.1455C29.7276 66.2457 28.2585 61.8675 27.7943 57.3291C27.3302 52.7906 27.8826 48.2058 29.4114 43.9075C30.6076 40.5445 32.3781 37.4229 34.637 34.6786C35.6799 33.4117 35.6926 31.5387 34.5322 30.3784Z" fill="#5E02F4"/>
<rect x="40.0798" y="102.326" width="5.1077" height="27.5816" rx="2.55385" transform="rotate(-90 40.0798 102.326)" fill="#5E02F4"/>
<rect x="71.1941" y="27.4301" width="5.4997" height="9.8916" rx="2.74985" transform="rotate(179.974 71.1941 27.4301)" fill="#A269FF"/>
<rect x="85.9592" y="37.4896" width="5.4997" height="9.8916" rx="2.74985" transform="rotate(-133.275 85.9592 37.4896)" fill="#A269FF"/>
<rect x="87.6885" y="54.1379" width="5.4997" height="9.8916" rx="2.74985" transform="rotate(-81.1629 87.6885 54.1379)" fill="#A269FF"/>
</svg>
