<svg width="24" height="24" viewBox="0 0 24 24" fill="none" xmlns="http://www.w3.org/2000/svg">
<g clip-path="url(#clip0_249_6)">
<path d="M10.647 10.268L13.733 13.354L10.086 17.001H7V13.915L10.647 10.268ZM13.776 7.139L12.768 8.147L15.854 11.233L16.862 10.225C17.714 9.373 17.714 7.991 16.862 7.139C16.01 6.287 14.628 6.287 13.776 7.139ZM24.001 12C24.001 18.617 18.618 24 12.001 24C5.384 24 0 18.617 0 12C0 5.383 5.383 0 12 0C18.617 0 24.001 5.383 24.001 12ZM21.001 12C21.001 7.037 16.964 3 12.001 3C7.038 3 3 7.037 3 12C3 16.963 7.037 21 12 21C16.963 21 21.001 16.963 21.001 12Z" fill="#595959"/>
</g>
<defs>
<clipPath id="clip0_249_6">
<rect width="24" height="24" fill="white"/>
</clipPath>
</defs>
</svg>
