<svg width="30" height="30" viewBox="0 0 30 30" fill="none" xmlns="http://www.w3.org/2000/svg">
<path d="M14.3501 4.37374C14.4029 4.24478 14.493 4.13446 14.6087 4.05682C14.7245 3.97917 14.8607 3.93771 15.0001 3.93771C15.1394 3.93771 15.2757 3.97917 15.3914 4.05682C15.5072 4.13446 15.5972 4.24478 15.6501 4.37374L18.3063 10.7625C18.356 10.882 18.4378 10.9855 18.5425 11.0616C18.6473 11.1377 18.771 11.1834 18.9001 11.1937L25.7976 11.7462C26.4213 11.7962 26.6738 12.575 26.1988 12.9812L20.9438 17.4837C20.8456 17.5677 20.7725 17.6771 20.7323 17.7999C20.6922 17.9228 20.6867 18.0542 20.7163 18.18L22.3226 24.9112C22.3549 25.0463 22.3464 25.1879 22.2983 25.3181C22.2501 25.4484 22.1645 25.5614 22.0521 25.643C21.9398 25.7246 21.8057 25.7711 21.667 25.7765C21.5283 25.782 21.391 25.7462 21.2726 25.6737L15.3663 22.0675C15.256 22.0003 15.1293 21.9647 15.0001 21.9647C14.8709 21.9647 14.7441 22.0003 14.6338 22.0675L8.72757 25.675C8.60914 25.7475 8.47188 25.7833 8.33314 25.7778C8.19439 25.7723 8.06038 25.7258 7.94803 25.6443C7.83567 25.5627 7.75002 25.4496 7.70188 25.3194C7.65374 25.1891 7.64528 25.0475 7.67757 24.9125L9.28382 18.18C9.31361 18.0542 9.30813 17.9227 9.26799 17.7999C9.22785 17.677 9.15461 17.5676 9.05632 17.4837L3.80132 12.9812C3.69608 12.8908 3.61995 12.7712 3.5825 12.6375C3.54505 12.5039 3.54795 12.3622 3.59084 12.2302C3.63372 12.0982 3.71468 11.9818 3.82352 11.8957C3.93237 11.8096 4.06425 11.7576 4.20257 11.7462L11.1001 11.1937C11.2291 11.1834 11.3528 11.1377 11.4576 11.0616C11.5624 10.9855 11.6441 10.882 11.6938 10.7625L14.3501 4.37374Z" stroke="#595959" stroke-width="2.3" stroke-linecap="round" stroke-linejoin="round"/>
</svg>
