<svg width="150" height="150" viewBox="0 0 100 100" fill="none" xmlns="http://www.w3.org/2000/svg">
<circle cx="50" cy="50" r="48" fill="white" stroke="url(#paint0_linear_151_27)" stroke-width="4"/>
<path fill-rule="evenodd" clip-rule="evenodd" d="M49.7351 47.2222C55.8716 47.2222 60.8462 42.2476 60.8462 36.1111C60.8462 29.9746 55.8716 25 49.7351 25C43.5986 25 38.624 29.9746 38.624 36.1111C38.624 42.2476 43.5986 47.2222 49.7351 47.2222ZM35.8046 54.9921C31.9884 56.4954 29.2108 59.8522 28.4483 63.8824L28.1394 65.5152C27.7388 67.633 28.2098 69.8228 29.4458 71.5885C30.9425 73.7266 33.3882 75 35.9981 75H63.3671C66.8868 75 70.0613 72.8837 71.4151 69.6347C71.9735 68.2945 72.1884 66.8361 72.0402 65.3918L71.95 64.512C71.4038 59.1871 67.4516 54.8396 62.2028 53.7898L60.2289 53.3951L49.7351 52.7778L42.2869 53.2433C40.6779 53.3438 39.0947 53.696 37.5947 54.2869L35.8046 54.9921Z" fill="url(#paint1_linear_151_27)"/>
<defs>
<linearGradient id="paint0_linear_151_27" x1="30" y1="-4" x2="103" y2="103" gradientUnits="userSpaceOnUse">
<stop stop-color="#FFAD7E"/>
<stop offset="1" stop-color="#A269FF"/>
</linearGradient>
<linearGradient id="paint1_linear_151_27" x1="37.8765" y1="27.1605" x2="61.3333" y2="77.1605" gradientUnits="userSpaceOnUse">
<stop stop-color="#FFAD7E"/>
<stop offset="1" stop-color="#A269FF"/>
</linearGradient>
</defs>
</svg>
