<svg width="24.000000" height="24.000000" viewBox="0 0 24 24" fill="none" xmlns="http://www.w3.org/2000/svg" xmlns:xlink="http://www.w3.org/1999/xlink">
	<desc>
			Created with Pixso.
	</desc>
	<defs>
		<clipPath id="clip300_152">
			<rect id="power" width="24.000000" height="24.000000" fill="white" fill-opacity="0"/>
		</clipPath>
	</defs>
	<rect id="power" width="24.000000" height="24.000000" fill="#FFFFFF" fill-opacity="0"/>
	<g clip-path="url(#clip300_152)">
		<path id="Vector (Border)" d="M13.15 3C13.15 2.35 12.64 1.85 12 1.85C11.35 1.85 10.85 2.35 10.85 3L10.85 12C10.85 12.64 11.35 13.15 12 13.15C12.64 13.15 13.15 12.64 13.15 12L13.15 3ZM6.44 6.44C6.17 6.72 5.92 7.01 5.69 7.32C5.46 7.63 5.26 7.95 5.07 8.29C4.89 8.64 4.73 8.99 4.6 9.35C4.47 9.71 4.37 10.08 4.3 10.46C4.22 10.84 4.17 11.23 4.15 11.61C4.14 11.99 4.14 12.38 4.18 12.76C4.22 13.15 4.29 13.53 4.38 13.9C4.47 14.28 4.59 14.64 4.74 15C4.89 15.36 5.06 15.7 5.26 16.03C5.46 16.36 5.68 16.67 5.93 16.97C6.17 17.27 6.44 17.55 6.72 17.81C7.01 18.07 7.31 18.31 7.63 18.52C8.28 18.95 8.97 19.28 9.72 19.51C10.09 19.62 10.46 19.7 10.84 19.76C11.22 19.82 11.61 19.84 12 19.84C12.77 19.84 13.53 19.73 14.27 19.51C15.02 19.28 15.71 18.95 16.36 18.52C17 18.09 17.57 17.58 18.06 16.97C18.56 16.37 18.95 15.72 19.25 15C19.54 14.28 19.73 13.54 19.81 12.76C19.88 11.99 19.85 11.22 19.69 10.46C19.54 9.7 19.28 8.98 18.92 8.29C18.74 7.95 18.53 7.63 18.3 7.32C18.07 7.01 17.82 6.72 17.55 6.44C17.09 5.99 17.09 5.27 17.55 4.82C18 4.36 18.72 4.36 19.17 4.82C19.88 5.53 20.47 6.33 20.95 7.21C21.18 7.65 21.38 8.11 21.55 8.57C21.72 9.04 21.85 9.52 21.95 10.01C22.05 10.51 22.11 11 22.13 11.5C22.16 11.99 22.15 12.49 22.1 12.99C22 13.99 21.76 14.95 21.37 15.88C20.99 16.81 20.48 17.66 19.84 18.43C19.52 18.82 19.18 19.18 18.81 19.52C18.44 19.85 18.05 20.16 17.63 20.43C16.8 20.99 15.9 21.42 14.94 21.71C14.46 21.85 13.98 21.96 13.49 22.04C12.99 22.11 12.5 22.14 12 22.14C10.99 22.14 10.01 22 9.05 21.71C8.09 21.42 7.19 20.99 6.36 20.43C5.94 20.16 5.55 19.85 5.18 19.52C4.81 19.18 4.47 18.82 4.15 18.43C3.83 18.05 3.54 17.64 3.29 17.21C3.03 16.79 2.81 16.34 2.62 15.88C2.43 15.42 2.27 14.94 2.15 14.46C2.03 13.98 1.94 13.49 1.89 12.99C1.84 12.49 1.83 11.99 1.86 11.5C1.88 11 1.94 10.51 2.04 10.01C2.14 9.52 2.27 9.04 2.44 8.57C2.61 8.11 2.81 7.65 3.04 7.21C3.28 6.77 3.55 6.35 3.84 5.95C4.14 5.55 4.46 5.17 4.82 4.82C5.27 4.36 5.99 4.36 6.44 4.82C6.9 5.27 6.9 5.99 6.44 6.44Z" fill="#000000" fill-opacity="1.000000" fill-rule="evenodd"/>
	</g>
</svg>
